<svg xmlns="http://www.w3.org/2000/svg" version="1.1" xmlns:xlink="http://www.w3.org/1999/xlink" xmlns:svgjs="http://svgjs.dev/svgjs" width="1280" height="720" preserveAspectRatio="none" viewBox="0 0 1280 720"><g mask="url(&quot;#SvgjsMask1007&quot;)" fill="none"><rect width="1280" height="720" x="0" y="0" fill="#0e2a47"></rect><path d="M70.37 -5.65L135.32 31.85L135.32 106.85L70.37 144.35L5.42 106.85L5.42 31.85zM265.23 106.85L330.19 144.35L330.19 219.35L265.23 256.85L200.28 219.35L200.28 144.35zM200.28 219.35L265.23 256.85L265.23 331.85L200.28 369.35L135.32 331.85L135.32 256.85zM265.23 331.85L330.19 369.35L330.19 444.35L265.23 481.85L200.28 444.35L200.28 369.35zM265.23 556.85L330.19 594.35L330.19 669.35L265.23 706.85L200.28 669.35L200.28 594.35zM395.14 331.85L460.09 369.35L460.09 444.35L395.14 481.85L330.19 444.35L330.19 369.35zM460.09 219.35L525.05 256.85L525.05 331.85L460.09 369.35L395.14 331.85L395.14 256.85zM460.09 444.35L525.05 481.85L525.05 556.85L460.09 594.35L395.14 556.85L395.14 481.85zM590 -5.65L654.95 31.85L654.95 106.85L590 144.35L525.05 106.85L525.05 31.85zM590 444.35L654.95 481.85L654.95 556.85L590 594.35L525.05 556.85L525.05 481.85zM590 669.35L654.95 706.85L654.95 781.85L590 819.35L525.05 781.85L525.05 706.85zM784.86 331.85L849.82 369.35L849.82 444.35L784.86 481.85L719.91 444.35L719.91 369.35zM784.86 556.85L849.82 594.35L849.82 669.35L784.86 706.85L719.91 669.35L719.91 594.35zM719.91 669.35L784.86 706.85L784.86 781.85L719.91 819.35L654.95 781.85L654.95 706.85zM849.81 -5.65L914.77 31.85L914.77 106.85L849.81 144.35L784.86 106.85L784.86 31.85zM849.81 444.35L914.77 481.85L914.77 556.85L849.81 594.35L784.86 556.85L784.86 481.85zM849.81 669.35L914.77 706.85L914.77 781.85L849.81 819.35L784.86 781.85L784.86 706.85zM979.72 -5.65L1044.68 31.85L1044.68 106.85L979.72 144.35L914.77 106.85L914.77 31.85zM979.72 444.35L1044.68 481.85L1044.68 556.85L979.72 594.35L914.77 556.85L914.77 481.85zM1109.63 -5.65L1174.58 31.85L1174.58 106.85L1109.63 144.35L1044.68 106.85L1044.68 31.85zM1109.63 444.35L1174.58 481.85L1174.58 556.85L1109.63 594.35L1044.68 556.85L1044.68 481.85zM1109.63 669.35L1174.58 706.85L1174.58 781.85L1109.63 819.35L1044.68 781.85L1044.68 706.85zM1304.49 106.85L1369.44 144.35L1369.44 219.35L1304.49 256.85L1239.54 219.35L1239.54 144.35zM1239.54 669.35L1304.49 706.85L1304.49 781.85L1239.54 819.35L1174.58 781.85L1174.58 706.85z" stroke="#03305d" stroke-width="2"></path><path d="M62.87 -5.65 a7.5 7.5 0 1 0 15 0 a7.5 7.5 0 1 0 -15 0zM127.82 31.85 a7.5 7.5 0 1 0 15 0 a7.5 7.5 0 1 0 -15 0zM127.82 106.85 a7.5 7.5 0 1 0 15 0 a7.5 7.5 0 1 0 -15 0zM62.87 144.35 a7.5 7.5 0 1 0 15 0 a7.5 7.5 0 1 0 -15 0zM-2.08 106.85 a7.5 7.5 0 1 0 15 0 a7.5 7.5 0 1 0 -15 0zM-2.08 31.85 a7.5 7.5 0 1 0 15 0 a7.5 7.5 0 1 0 -15 0zM257.73 106.85 a7.5 7.5 0 1 0 15 0 a7.5 7.5 0 1 0 -15 0zM322.69 144.35 a7.5 7.5 0 1 0 15 0 a7.5 7.5 0 1 0 -15 0zM322.69 219.35 a7.5 7.5 0 1 0 15 0 a7.5 7.5 0 1 0 -15 0zM257.73 256.85 a7.5 7.5 0 1 0 15 0 a7.5 7.5 0 1 0 -15 0zM192.78 219.35 a7.5 7.5 0 1 0 15 0 a7.5 7.5 0 1 0 -15 0zM192.78 144.35 a7.5 7.5 0 1 0 15 0 a7.5 7.5 0 1 0 -15 0zM257.73 331.85 a7.5 7.5 0 1 0 15 0 a7.5 7.5 0 1 0 -15 0zM192.78 369.35 a7.5 7.5 0 1 0 15 0 a7.5 7.5 0 1 0 -15 0zM127.82 331.85 a7.5 7.5 0 1 0 15 0 a7.5 7.5 0 1 0 -15 0zM127.82 256.85 a7.5 7.5 0 1 0 15 0 a7.5 7.5 0 1 0 -15 0zM322.69 369.35 a7.5 7.5 0 1 0 15 0 a7.5 7.5 0 1 0 -15 0zM322.69 444.35 a7.5 7.5 0 1 0 15 0 a7.5 7.5 0 1 0 -15 0zM257.73 481.85 a7.5 7.5 0 1 0 15 0 a7.5 7.5 0 1 0 -15 0zM192.78 444.35 a7.5 7.5 0 1 0 15 0 a7.5 7.5 0 1 0 -15 0zM257.73 556.85 a7.5 7.5 0 1 0 15 0 a7.5 7.5 0 1 0 -15 0zM322.69 594.35 a7.5 7.5 0 1 0 15 0 a7.5 7.5 0 1 0 -15 0zM322.69 669.35 a7.5 7.5 0 1 0 15 0 a7.5 7.5 0 1 0 -15 0zM257.73 706.85 a7.5 7.5 0 1 0 15 0 a7.5 7.5 0 1 0 -15 0zM192.78 669.35 a7.5 7.5 0 1 0 15 0 a7.5 7.5 0 1 0 -15 0zM192.78 594.35 a7.5 7.5 0 1 0 15 0 a7.5 7.5 0 1 0 -15 0zM387.64 331.85 a7.5 7.5 0 1 0 15 0 a7.5 7.5 0 1 0 -15 0zM452.59 369.35 a7.5 7.5 0 1 0 15 0 a7.5 7.5 0 1 0 -15 0zM452.59 444.35 a7.5 7.5 0 1 0 15 0 a7.5 7.5 0 1 0 -15 0zM387.64 481.85 a7.5 7.5 0 1 0 15 0 a7.5 7.5 0 1 0 -15 0zM452.59 219.35 a7.5 7.5 0 1 0 15 0 a7.5 7.5 0 1 0 -15 0zM517.55 256.85 a7.5 7.5 0 1 0 15 0 a7.5 7.5 0 1 0 -15 0zM517.55 331.85 a7.5 7.5 0 1 0 15 0 a7.5 7.5 0 1 0 -15 0zM387.64 256.85 a7.5 7.5 0 1 0 15 0 a7.5 7.5 0 1 0 -15 0zM517.55 481.85 a7.5 7.5 0 1 0 15 0 a7.5 7.5 0 1 0 -15 0zM517.55 556.85 a7.5 7.5 0 1 0 15 0 a7.5 7.5 0 1 0 -15 0zM452.59 594.35 a7.5 7.5 0 1 0 15 0 a7.5 7.5 0 1 0 -15 0zM387.64 556.85 a7.5 7.5 0 1 0 15 0 a7.5 7.5 0 1 0 -15 0zM582.5 -5.65 a7.5 7.5 0 1 0 15 0 a7.5 7.5 0 1 0 -15 0zM647.45 31.85 a7.5 7.5 0 1 0 15 0 a7.5 7.5 0 1 0 -15 0zM647.45 106.85 a7.5 7.5 0 1 0 15 0 a7.5 7.5 0 1 0 -15 0zM582.5 144.35 a7.5 7.5 0 1 0 15 0 a7.5 7.5 0 1 0 -15 0zM517.55 106.85 a7.5 7.5 0 1 0 15 0 a7.5 7.5 0 1 0 -15 0zM517.55 31.85 a7.5 7.5 0 1 0 15 0 a7.5 7.5 0 1 0 -15 0zM582.5 444.35 a7.5 7.5 0 1 0 15 0 a7.5 7.5 0 1 0 -15 0zM647.45 481.85 a7.5 7.5 0 1 0 15 0 a7.5 7.5 0 1 0 -15 0zM647.45 556.85 a7.5 7.5 0 1 0 15 0 a7.5 7.5 0 1 0 -15 0zM582.5 594.35 a7.5 7.5 0 1 0 15 0 a7.5 7.5 0 1 0 -15 0zM582.5 669.35 a7.5 7.5 0 1 0 15 0 a7.5 7.5 0 1 0 -15 0zM647.45 706.85 a7.5 7.5 0 1 0 15 0 a7.5 7.5 0 1 0 -15 0zM647.45 781.85 a7.5 7.5 0 1 0 15 0 a7.5 7.5 0 1 0 -15 0zM582.5 819.35 a7.5 7.5 0 1 0 15 0 a7.5 7.5 0 1 0 -15 0zM517.55 781.85 a7.5 7.5 0 1 0 15 0 a7.5 7.5 0 1 0 -15 0zM517.55 706.85 a7.5 7.5 0 1 0 15 0 a7.5 7.5 0 1 0 -15 0zM777.36 331.85 a7.5 7.5 0 1 0 15 0 a7.5 7.5 0 1 0 -15 0zM842.32 369.35 a7.5 7.5 0 1 0 15 0 a7.5 7.5 0 1 0 -15 0zM842.32 444.35 a7.5 7.5 0 1 0 15 0 a7.5 7.5 0 1 0 -15 0zM777.36 481.85 a7.5 7.5 0 1 0 15 0 a7.5 7.5 0 1 0 -15 0zM712.41 444.35 a7.5 7.5 0 1 0 15 0 a7.5 7.5 0 1 0 -15 0zM712.41 369.35 a7.5 7.5 0 1 0 15 0 a7.5 7.5 0 1 0 -15 0zM777.36 556.85 a7.5 7.5 0 1 0 15 0 a7.5 7.5 0 1 0 -15 0zM842.32 594.35 a7.5 7.5 0 1 0 15 0 a7.5 7.5 0 1 0 -15 0zM842.32 669.35 a7.5 7.5 0 1 0 15 0 a7.5 7.5 0 1 0 -15 0zM777.36 706.85 a7.5 7.5 0 1 0 15 0 a7.5 7.5 0 1 0 -15 0zM712.41 669.35 a7.5 7.5 0 1 0 15 0 a7.5 7.5 0 1 0 -15 0zM712.41 594.35 a7.5 7.5 0 1 0 15 0 a7.5 7.5 0 1 0 -15 0zM777.36 781.85 a7.5 7.5 0 1 0 15 0 a7.5 7.5 0 1 0 -15 0zM712.41 819.35 a7.5 7.5 0 1 0 15 0 a7.5 7.5 0 1 0 -15 0zM842.31 -5.65 a7.5 7.5 0 1 0 15 0 a7.5 7.5 0 1 0 -15 0zM907.27 31.85 a7.5 7.5 0 1 0 15 0 a7.5 7.5 0 1 0 -15 0zM907.27 106.85 a7.5 7.5 0 1 0 15 0 a7.5 7.5 0 1 0 -15 0zM842.31 144.35 a7.5 7.5 0 1 0 15 0 a7.5 7.5 0 1 0 -15 0zM777.36 106.85 a7.5 7.5 0 1 0 15 0 a7.5 7.5 0 1 0 -15 0zM777.36 31.85 a7.5 7.5 0 1 0 15 0 a7.5 7.5 0 1 0 -15 0zM842.31 444.35 a7.5 7.5 0 1 0 15 0 a7.5 7.5 0 1 0 -15 0zM907.27 481.85 a7.5 7.5 0 1 0 15 0 a7.5 7.5 0 1 0 -15 0zM907.27 556.85 a7.5 7.5 0 1 0 15 0 a7.5 7.5 0 1 0 -15 0zM842.31 594.35 a7.5 7.5 0 1 0 15 0 a7.5 7.5 0 1 0 -15 0zM842.31 669.35 a7.5 7.5 0 1 0 15 0 a7.5 7.5 0 1 0 -15 0zM907.27 706.85 a7.5 7.5 0 1 0 15 0 a7.5 7.5 0 1 0 -15 0zM907.27 781.85 a7.5 7.5 0 1 0 15 0 a7.5 7.5 0 1 0 -15 0zM842.31 819.35 a7.5 7.5 0 1 0 15 0 a7.5 7.5 0 1 0 -15 0zM972.22 -5.65 a7.5 7.5 0 1 0 15 0 a7.5 7.5 0 1 0 -15 0zM1037.18 31.85 a7.5 7.5 0 1 0 15 0 a7.5 7.5 0 1 0 -15 0zM1037.18 106.85 a7.5 7.5 0 1 0 15 0 a7.5 7.5 0 1 0 -15 0zM972.22 144.35 a7.5 7.5 0 1 0 15 0 a7.5 7.5 0 1 0 -15 0zM972.22 444.35 a7.5 7.5 0 1 0 15 0 a7.5 7.5 0 1 0 -15 0zM1037.18 481.85 a7.5 7.5 0 1 0 15 0 a7.5 7.5 0 1 0 -15 0zM1037.18 556.85 a7.5 7.5 0 1 0 15 0 a7.5 7.5 0 1 0 -15 0zM972.22 594.35 a7.5 7.5 0 1 0 15 0 a7.5 7.5 0 1 0 -15 0zM1102.13 -5.65 a7.5 7.5 0 1 0 15 0 a7.5 7.5 0 1 0 -15 0zM1167.08 31.85 a7.5 7.5 0 1 0 15 0 a7.5 7.5 0 1 0 -15 0zM1167.08 106.85 a7.5 7.5 0 1 0 15 0 a7.5 7.5 0 1 0 -15 0zM1102.13 144.35 a7.5 7.5 0 1 0 15 0 a7.5 7.5 0 1 0 -15 0zM1102.13 444.35 a7.5 7.5 0 1 0 15 0 a7.5 7.5 0 1 0 -15 0zM1167.08 481.85 a7.5 7.5 0 1 0 15 0 a7.5 7.5 0 1 0 -15 0zM1167.08 556.85 a7.5 7.5 0 1 0 15 0 a7.5 7.5 0 1 0 -15 0zM1102.13 594.35 a7.5 7.5 0 1 0 15 0 a7.5 7.5 0 1 0 -15 0zM1102.13 669.35 a7.5 7.5 0 1 0 15 0 a7.5 7.5 0 1 0 -15 0zM1167.08 706.85 a7.5 7.5 0 1 0 15 0 a7.5 7.5 0 1 0 -15 0zM1167.08 781.85 a7.5 7.5 0 1 0 15 0 a7.5 7.5 0 1 0 -15 0zM1102.13 819.35 a7.5 7.5 0 1 0 15 0 a7.5 7.5 0 1 0 -15 0zM1037.18 781.85 a7.5 7.5 0 1 0 15 0 a7.5 7.5 0 1 0 -15 0zM1037.18 706.85 a7.5 7.5 0 1 0 15 0 a7.5 7.5 0 1 0 -15 0zM1296.99 106.85 a7.5 7.5 0 1 0 15 0 a7.5 7.5 0 1 0 -15 0zM1361.94 144.35 a7.5 7.5 0 1 0 15 0 a7.5 7.5 0 1 0 -15 0zM1361.94 219.35 a7.5 7.5 0 1 0 15 0 a7.5 7.5 0 1 0 -15 0zM1296.99 256.85 a7.5 7.5 0 1 0 15 0 a7.5 7.5 0 1 0 -15 0zM1232.04 219.35 a7.5 7.5 0 1 0 15 0 a7.5 7.5 0 1 0 -15 0zM1232.04 144.35 a7.5 7.5 0 1 0 15 0 a7.5 7.5 0 1 0 -15 0zM1232.04 669.35 a7.5 7.5 0 1 0 15 0 a7.5 7.5 0 1 0 -15 0zM1296.99 706.85 a7.5 7.5 0 1 0 15 0 a7.5 7.5 0 1 0 -15 0zM1296.99 781.85 a7.5 7.5 0 1 0 15 0 a7.5 7.5 0 1 0 -15 0zM1232.04 819.35 a7.5 7.5 0 1 0 15 0 a7.5 7.5 0 1 0 -15 0z" fill="#03305d"></path><path d="M167.92 203.25L211.22 228.25L211.22 278.25L167.92 303.25L124.62 278.25L124.62 228.25zM124.62 278.25L167.92 303.25L167.92 353.25L124.62 378.25L81.31 353.25L81.31 303.25zM167.92 353.25L211.22 378.25L211.22 428.25L167.92 453.25L124.62 428.25L124.62 378.25zM254.52 503.25L297.82 528.25L297.82 578.25L254.52 603.25L211.22 578.25L211.22 528.25zM384.43 278.25L427.73 303.25L427.73 353.25L384.43 378.25L341.13 353.25L341.13 303.25zM427.73 503.25L471.04 528.25L471.04 578.25L427.73 603.25L384.43 578.25L384.43 528.25zM384.43 728.25L427.73 753.25L427.73 803.25L384.43 828.25L341.13 803.25L341.13 753.25zM514.34 653.25L557.64 678.25L557.64 728.25L514.34 753.25L471.04 728.25L471.04 678.25zM471.04 728.25L514.34 753.25L514.34 803.25L471.04 828.25L427.73 803.25L427.73 753.25zM600.94 353.25L644.25 378.25L644.25 428.25L600.94 453.25L557.64 428.25L557.64 378.25zM730.85 -21.75L774.15 3.25L774.15 53.25L730.85 78.25L687.55 53.25L687.55 3.25zM730.85 128.25L774.15 153.25L774.15 203.25L730.85 228.25L687.55 203.25L687.55 153.25zM774.15 203.25L817.46 228.25L817.46 278.25L774.15 303.25L730.85 278.25L730.85 228.25zM774.15 503.25L817.46 528.25L817.46 578.25L774.15 603.25L730.85 578.25L730.85 528.25zM860.76 53.25L904.06 78.25L904.06 128.25L860.76 153.25L817.46 128.25L817.46 78.25zM817.46 128.25L860.76 153.25L860.76 203.25L817.46 228.25L774.15 203.25L774.15 153.25zM904.06 278.25L947.36 303.25L947.36 353.25L904.06 378.25L860.76 353.25L860.76 303.25zM947.36 353.25L990.67 378.25L990.67 428.25L947.36 453.25L904.06 428.25L904.06 378.25zM1077.27 578.25L1120.57 603.25L1120.57 653.25L1077.27 678.25L1033.97 653.25L1033.97 603.25zM1077.27 728.25L1120.57 753.25L1120.57 803.25L1077.27 828.25L1033.97 803.25L1033.97 753.25zM1250.48 -21.75L1293.78 3.25L1293.78 53.25L1250.48 78.25L1207.18 53.25L1207.18 3.25zM1250.48 278.25L1293.78 303.25L1293.78 353.25L1250.48 378.25L1207.18 353.25L1207.18 303.25z" stroke="rgba(6, 80, 156, 0.93)" stroke-width="2"></path></g><defs><mask id="SvgjsMask1007"><rect width="1280" height="720" fill="#ffffff"></rect></mask></defs></svg>