<svg xmlns="http://www.w3.org/2000/svg" version="1.1" xmlns:xlink="http://www.w3.org/1999/xlink" xmlns:svgjs="http://svgjs.dev/svgjs" width="1440" height="560" preserveAspectRatio="none" viewBox="0 0 1440 560"><g mask="url(&quot;#SvgjsMask5907&quot;)" fill="none"><rect width="1440" height="560" x="0" y="0" fill="url(&quot;#SvgjsLinearGradient5908&quot;)"></rect><path d="M56.17 57.36L99.48 82.36L99.48 132.36L56.17 157.36L12.87 132.36L12.87 82.36zM12.87 132.36L56.17 157.36L56.17 207.36L12.87 232.36L-30.43 207.36L-30.43 157.36zM12.87 282.36L56.17 307.36L56.17 357.36L12.87 382.36L-30.43 357.36L-30.43 307.36zM56.17 507.36L99.48 532.36L99.48 582.36L56.17 607.36L12.87 582.36L12.87 532.36zM99.48 282.36L142.78 307.36L142.78 357.36L99.48 382.36L56.17 357.36L56.17 307.36zM229.38 57.36L272.69 82.36L272.69 132.36L229.38 157.36L186.08 132.36L186.08 82.36zM229.38 357.36L272.69 382.36L272.69 432.36L229.38 457.36L186.08 432.36L186.08 382.36zM186.08 432.36L229.38 457.36L229.38 507.36L186.08 532.36L142.78 507.36L142.78 457.36zM272.69 282.36L315.99 307.36L315.99 357.36L272.69 382.36L229.38 357.36L229.38 307.36zM359.29 132.36L402.59 157.36L402.59 207.36L359.29 232.36L315.99 207.36L315.99 157.36zM402.59 507.36L445.9 532.36L445.9 582.36L402.59 607.36L359.29 582.36L359.29 532.36zM489.2 207.36L532.5 232.36L532.5 282.36L489.2 307.36L445.9 282.36L445.9 232.36zM445.9 432.36L489.2 457.36L489.2 507.36L445.9 532.36L402.59 507.36L402.59 457.36zM575.8 357.36L619.11 382.36L619.11 432.36L575.8 457.36L532.5 432.36L532.5 382.36zM532.5 432.36L575.8 457.36L575.8 507.36L532.5 532.36L489.2 507.36L489.2 457.36zM619.11 132.36L662.41 157.36L662.41 207.36L619.11 232.36L575.8 207.36L575.8 157.36zM705.71 282.36L749.01 307.36L749.01 357.36L705.71 382.36L662.41 357.36L662.41 307.36zM835.62 57.36L878.92 82.36L878.92 132.36L835.62 157.36L792.32 132.36L792.32 82.36zM792.32 282.36L835.62 307.36L835.62 357.36L792.32 382.36L749.01 357.36L749.01 307.36zM792.32 432.36L835.62 457.36L835.62 507.36L792.32 532.36L749.01 507.36L749.01 457.36zM878.92 -17.64L922.22 7.36L922.22 57.36L878.92 82.36L835.62 57.36L835.62 7.36zM922.22 357.36L965.53 382.36L965.53 432.36L922.22 457.36L878.92 432.36L878.92 382.36zM965.53 132.36L1008.83 157.36L1008.83 207.36L965.53 232.36L922.22 207.36L922.22 157.36zM965.53 432.36L1008.83 457.36L1008.83 507.36L965.53 532.36L922.22 507.36L922.22 457.36zM1008.83 507.36L1052.13 532.36L1052.13 582.36L1008.83 607.36L965.53 582.36L965.53 532.36zM1052.13 432.36L1095.43 457.36L1095.43 507.36L1052.13 532.36L1008.83 507.36L1008.83 457.36zM1095.43 507.36L1138.73 532.36L1138.73 582.36L1095.43 607.36L1052.13 582.36L1052.13 532.36zM1138.73 -17.64L1182.04 7.36L1182.04 57.36L1138.73 82.36L1095.43 57.36L1095.43 7.36zM1138.73 282.36L1182.04 307.36L1182.04 357.36L1138.73 382.36L1095.43 357.36L1095.43 307.36zM1268.64 357.36L1311.94 382.36L1311.94 432.36L1268.64 457.36L1225.34 432.36L1225.34 382.36zM1355.25 57.36L1398.55 82.36L1398.55 132.36L1355.25 157.36L1311.94 132.36L1311.94 82.36zM1355.25 507.36L1398.55 532.36L1398.55 582.36L1355.25 607.36L1311.94 582.36L1311.94 532.36zM1441.85 57.36L1485.15 82.36L1485.15 132.36L1441.85 157.36L1398.55 132.36L1398.55 82.36zM1441.85 207.36L1485.15 232.36L1485.15 282.36L1441.85 307.36L1398.55 282.36L1398.55 232.36z" stroke="url(&quot;#SvgjsLinearGradient5909&quot;)" stroke-width="2"></path></g><defs><mask id="SvgjsMask5907"><rect width="1440" height="560" fill="#ffffff"></rect></mask><linearGradient x1="15.28%" y1="139.29%" x2="84.72%" y2="-39.29%" gradientUnits="userSpaceOnUse" id="SvgjsLinearGradient5908"><stop stop-color="rgba(0, 0, 255, 0.7)" offset="0"></stop><stop stop-color="rgba(0, 0, 255, 0.7)" offset="0.75"></stop></linearGradient><linearGradient x1="220.03199999999998" y1="780.024" x2="1219.9679999999998" y2="-220.02399999999997" gradientUnits="userSpaceOnUse" id="SvgjsLinearGradient5909"><stop stop-color="rgba(14, 42, 71, 1)" offset="0"></stop><stop stop-color="rgba(150, 0, 255, 0.8)" offset="0.5"></stop><stop stop-color="rgba(150, 0, 255, 0.8)" offset="1"></stop></linearGradient></defs></svg>