<svg xmlns="http://www.w3.org/2000/svg" version="1.1" xmlns:xlink="http://www.w3.org/1999/xlink" xmlns:svgjs="http://svgjs.dev/svgjs" width="1280" height="720" preserveAspectRatio="none" viewBox="0 0 1280 720"><g mask="url(&quot;#SvgjsMask2411&quot;)" fill="none"><rect width="1280" height="720" x="0" y="0" fill="url(&quot;#SvgjsLinearGradient2412&quot;)"></rect><path d="M-98.8 522.22L-98.8 522.22" stroke="#132e65" stroke-width="1.5"></path><path d="M-98.8 522.22L-80.49 651.48" stroke="#132e65" stroke-width="1.5"></path><path d="M-98.8 522.22L85.04 506.51" stroke="#132e65" stroke-width="1.5"></path><path d="M-98.8 522.22L102.11 643.57" stroke="#132e65" stroke-width="1.5"></path><path d="M-98.8 522.22L-49.62 808.13" stroke="#132e65" stroke-width="1.5"></path><path d="M-80.49 651.48L-80.49 651.48" stroke="#132e65" stroke-width="1.5"></path><path d="M-80.49 651.48L-49.62 808.13" stroke="#132e65" stroke-width="1.5"></path><path d="M-80.49 651.48L102.11 643.57" stroke="#132e65" stroke-width="1.5"></path><path d="M-80.49 651.48L65.68 814.39" stroke="#132e65" stroke-width="1.5"></path><path d="M-80.49 651.48L85.04 506.51" stroke="#132e65" stroke-width="1.5"></path><path d="M-80.49 651.48L190.93 698.74" stroke="#132e65" stroke-width="1.5"></path><path d="M-49.62 808.13L-49.62 808.13" stroke="#132e65" stroke-width="1.5"></path><path d="M-49.62 808.13L65.68 814.39" stroke="#132e65" stroke-width="1.5"></path><path d="M85.04 506.51L85.04 506.51" stroke="#132e65" stroke-width="1.5"></path><path d="M85.04 506.51L197.2 510.45" stroke="#132e65" stroke-width="1.5"></path><path d="M85.04 506.51L102.11 643.57" stroke="#132e65" stroke-width="1.5"></path><path d="M85.04 506.51L190.93 698.74" stroke="#132e65" stroke-width="1.5"></path><path d="M85.04 506.51L65.68 814.39" stroke="#132e65" stroke-width="1.5"></path><path d="M102.11 643.57L102.11 643.57" stroke="#132e65" stroke-width="1.5"></path><path d="M102.11 643.57L190.93 698.74" stroke="#132e65" stroke-width="1.5"></path><path d="M102.11 643.57L197.2 510.45" stroke="#132e65" stroke-width="1.5"></path><path d="M102.11 643.57L65.68 814.39" stroke="#132e65" stroke-width="1.5"></path><path d="M102.11 643.57L222.07 822.45" stroke="#132e65" stroke-width="1.5"></path><path d="M65.68 814.39L65.68 814.39" stroke="#132e65" stroke-width="1.5"></path><path d="M65.68 814.39L222.07 822.45" stroke="#132e65" stroke-width="1.5"></path><path d="M65.68 814.39L190.93 698.74" stroke="#132e65" stroke-width="1.5"></path><path d="M197.2 510.45L197.2 510.45" stroke="#132e65" stroke-width="1.5"></path><path d="M197.2 510.45L190.93 698.74" stroke="#132e65" stroke-width="1.5"></path><path d="M190.93 698.74L190.93 698.74" stroke="#132e65" stroke-width="1.5"></path><path d="M190.93 698.74L222.07 822.45" stroke="#132e65" stroke-width="1.5"></path><path d="M222.07 822.45L222.07 822.45" stroke="#132e65" stroke-width="1.5"></path><path d="M222.07 822.45L395.57 833.96" stroke="#132e65" stroke-width="1.5"></path><path d="M411.17 493.15L411.17 493.15" stroke="#132e65" stroke-width="1.5"></path><path d="M411.17 493.15L554.48 543.39" stroke="#132e65" stroke-width="1.5"></path><path d="M411.17 493.15L407.53 649.63" stroke="#132e65" stroke-width="1.5"></path><path d="M407.53 649.63L407.53 649.63" stroke="#132e65" stroke-width="1.5"></path><path d="M407.53 649.63L518.87 662.25" stroke="#132e65" stroke-width="1.5"></path><path d="M407.53 649.63L499.14 801.92" stroke="#132e65" stroke-width="1.5"></path><path d="M407.53 649.63L554.48 543.39" stroke="#132e65" stroke-width="1.5"></path><path d="M407.53 649.63L395.57 833.96" stroke="#132e65" stroke-width="1.5"></path><path d="M395.57 833.96L395.57 833.96" stroke="#132e65" stroke-width="1.5"></path><path d="M395.57 833.96L499.14 801.92" stroke="#132e65" stroke-width="1.5"></path><path d="M395.57 833.96L518.87 662.25" stroke="#132e65" stroke-width="1.5"></path><path d="M525.26 379.42L525.26 379.42" stroke="#132e65" stroke-width="1.5"></path><path d="M525.26 379.42L650.49 338.34" stroke="#132e65" stroke-width="1.5"></path><path d="M525.26 379.42L411.17 493.15" stroke="#132e65" stroke-width="1.5"></path><path d="M525.26 379.42L554.48 543.39" stroke="#132e65" stroke-width="1.5"></path><path d="M525.26 379.42L518.87 662.25" stroke="#132e65" stroke-width="1.5"></path><path d="M554.48 543.39L554.48 543.39" stroke="#132e65" stroke-width="1.5"></path><path d="M554.48 543.39L518.87 662.25" stroke="#132e65" stroke-width="1.5"></path><path d="M554.48 543.39L670.49 670.16" stroke="#132e65" stroke-width="1.5"></path><path d="M518.87 662.25L518.87 662.25" stroke="#132e65" stroke-width="1.5"></path><path d="M518.87 662.25L499.14 801.92" stroke="#132e65" stroke-width="1.5"></path><path d="M518.87 662.25L670.49 670.16" stroke="#132e65" stroke-width="1.5"></path><path d="M499.14 801.92L499.14 801.92" stroke="#132e65" stroke-width="1.5"></path><path d="M499.14 801.92L680.29 829.64" stroke="#132e65" stroke-width="1.5"></path><path d="M499.14 801.92L670.49 670.16" stroke="#132e65" stroke-width="1.5"></path><path d="M650.49 338.34L650.49 338.34" stroke="#132e65" stroke-width="1.5"></path><path d="M650.49 338.34L813.28 362.62" stroke="#132e65" stroke-width="1.5"></path><path d="M650.49 338.34L841.8 226.13" stroke="#132e65" stroke-width="1.5"></path><path d="M650.49 338.34L554.48 543.39" stroke="#132e65" stroke-width="1.5"></path><path d="M670.49 670.16L670.49 670.16" stroke="#132e65" stroke-width="1.5"></path><path d="M670.49 670.16L680.29 829.64" stroke="#132e65" stroke-width="1.5"></path><path d="M680.29 829.64L680.29 829.64" stroke="#132e65" stroke-width="1.5"></path><path d="M680.29 829.64L811.84 840.35" stroke="#132e65" stroke-width="1.5"></path><path d="M856.34 -85.04L856.34 -85.04" stroke="#132e65" stroke-width="1.5"></path><path d="M856.34 -85.04L951.26 -75.97" stroke="#132e65" stroke-width="1.5"></path><path d="M856.34 -85.04L801.7 76.23" stroke="#132e65" stroke-width="1.5"></path><path d="M856.34 -85.04L968.99 95.54" stroke="#132e65" stroke-width="1.5"></path><path d="M801.7 76.23L801.7 76.23" stroke="#132e65" stroke-width="1.5"></path><path d="M801.7 76.23L841.8 226.13" stroke="#132e65" stroke-width="1.5"></path><path d="M841.8 226.13L841.8 226.13" stroke="#132e65" stroke-width="1.5"></path><path d="M841.8 226.13L974.39 221.75" stroke="#132e65" stroke-width="1.5"></path><path d="M841.8 226.13L813.28 362.62" stroke="#132e65" stroke-width="1.5"></path><path d="M841.8 226.13L968.99 95.54" stroke="#132e65" stroke-width="1.5"></path><path d="M841.8 226.13L942.98 394.22" stroke="#132e65" stroke-width="1.5"></path><path d="M813.28 362.62L813.28 362.62" stroke="#132e65" stroke-width="1.5"></path><path d="M813.28 362.62L942.98 394.22" stroke="#132e65" stroke-width="1.5"></path><path d="M812.84 511.48L812.84 511.48" stroke="#132e65" stroke-width="1.5"></path><path d="M812.84 511.48L813.28 362.62" stroke="#132e65" stroke-width="1.5"></path><path d="M812.84 511.48L942.98 394.22" stroke="#132e65" stroke-width="1.5"></path><path d="M812.84 511.48L1012.01 527.67" stroke="#132e65" stroke-width="1.5"></path><path d="M812.84 511.48L670.49 670.16" stroke="#132e65" stroke-width="1.5"></path><path d="M811.84 840.35L811.84 840.35" stroke="#132e65" stroke-width="1.5"></path><path d="M811.84 840.35L1012.29 815.19" stroke="#132e65" stroke-width="1.5"></path><path d="M811.84 840.35L670.49 670.16" stroke="#132e65" stroke-width="1.5"></path><path d="M811.84 840.35L973.5 683.48" stroke="#132e65" stroke-width="1.5"></path><path d="M811.84 840.35L1091.84 818.34" stroke="#132e65" stroke-width="1.5"></path><path d="M811.84 840.35L499.14 801.92" stroke="#132e65" stroke-width="1.5"></path><path d="M951.26 -75.97L951.26 -75.97" stroke="#132e65" stroke-width="1.5"></path><path d="M951.26 -75.97L1099.41 -47.77" stroke="#132e65" stroke-width="1.5"></path><path d="M951.26 -75.97L968.99 95.54" stroke="#132e65" stroke-width="1.5"></path><path d="M951.26 -75.97L1103.63 66.9" stroke="#132e65" stroke-width="1.5"></path><path d="M951.26 -75.97L801.7 76.23" stroke="#132e65" stroke-width="1.5"></path><path d="M968.99 95.54L968.99 95.54" stroke="#132e65" stroke-width="1.5"></path><path d="M968.99 95.54L974.39 221.75" stroke="#132e65" stroke-width="1.5"></path><path d="M974.39 221.75L974.39 221.75" stroke="#132e65" stroke-width="1.5"></path><path d="M974.39 221.75L1087.51 236.23" stroke="#132e65" stroke-width="1.5"></path><path d="M974.39 221.75L942.98 394.22" stroke="#132e65" stroke-width="1.5"></path><path d="M942.98 394.22L942.98 394.22" stroke="#132e65" stroke-width="1.5"></path><path d="M942.98 394.22L1012.01 527.67" stroke="#132e65" stroke-width="1.5"></path><path d="M942.98 394.22L1116.31 338.74" stroke="#132e65" stroke-width="1.5"></path><path d="M1012.01 527.67L1012.01 527.67" stroke="#132e65" stroke-width="1.5"></path><path d="M1012.01 527.67L1115.16 535.72" stroke="#132e65" stroke-width="1.5"></path><path d="M1012.01 527.67L973.5 683.48" stroke="#132e65" stroke-width="1.5"></path><path d="M1012.01 527.67L1100.07 680.88" stroke="#132e65" stroke-width="1.5"></path><path d="M1012.01 527.67L1116.31 338.74" stroke="#132e65" stroke-width="1.5"></path><path d="M973.5 683.48L973.5 683.48" stroke="#132e65" stroke-width="1.5"></path><path d="M973.5 683.48L1100.07 680.88" stroke="#132e65" stroke-width="1.5"></path><path d="M973.5 683.48L1012.29 815.19" stroke="#132e65" stroke-width="1.5"></path><path d="M973.5 683.48L1091.84 818.34" stroke="#132e65" stroke-width="1.5"></path><path d="M973.5 683.48L1115.16 535.72" stroke="#132e65" stroke-width="1.5"></path><path d="M1012.29 815.19L1012.29 815.19" stroke="#132e65" stroke-width="1.5"></path><path d="M1012.29 815.19L1091.84 818.34" stroke="#132e65" stroke-width="1.5"></path><path d="M1012.29 815.19L1100.07 680.88" stroke="#132e65" stroke-width="1.5"></path><path d="M1099.41 -47.77L1099.41 -47.77" stroke="#132e65" stroke-width="1.5"></path><path d="M1099.41 -47.77L1103.63 66.9" stroke="#132e65" stroke-width="1.5"></path><path d="M1103.63 66.9L1103.63 66.9" stroke="#132e65" stroke-width="1.5"></path><path d="M1103.63 66.9L968.99 95.54" stroke="#132e65" stroke-width="1.5"></path><path d="M1103.63 66.9L1087.51 236.23" stroke="#132e65" stroke-width="1.5"></path><path d="M1103.63 66.9L1300.52 101.59" stroke="#132e65" stroke-width="1.5"></path><path d="M1103.63 66.9L974.39 221.75" stroke="#132e65" stroke-width="1.5"></path><path d="M1087.51 236.23L1087.51 236.23" stroke="#132e65" stroke-width="1.5"></path><path d="M1087.51 236.23L1116.31 338.74" stroke="#132e65" stroke-width="1.5"></path><path d="M1087.51 236.23L1261.84 219.55" stroke="#132e65" stroke-width="1.5"></path><path d="M1087.51 236.23L968.99 95.54" stroke="#132e65" stroke-width="1.5"></path><path d="M1116.31 338.74L1116.31 338.74" stroke="#132e65" stroke-width="1.5"></path><path d="M1116.31 338.74L1287.92 357.48" stroke="#132e65" stroke-width="1.5"></path><path d="M1116.31 338.74L974.39 221.75" stroke="#132e65" stroke-width="1.5"></path><path d="M1115.16 535.72L1115.16 535.72" stroke="#132e65" stroke-width="1.5"></path><path d="M1115.16 535.72L1248.21 536.44" stroke="#132e65" stroke-width="1.5"></path><path d="M1115.16 535.72L1100.07 680.88" stroke="#132e65" stroke-width="1.5"></path><path d="M1115.16 535.72L1116.31 338.74" stroke="#132e65" stroke-width="1.5"></path><path d="M1100.07 680.88L1100.07 680.88" stroke="#132e65" stroke-width="1.5"></path><path d="M1100.07 680.88L1091.84 818.34" stroke="#132e65" stroke-width="1.5"></path><path d="M1100.07 680.88L1248.14 684.17" stroke="#132e65" stroke-width="1.5"></path><path d="M1091.84 818.34L1091.84 818.34" stroke="#132e65" stroke-width="1.5"></path><path d="M1091.84 818.34L1256.03 848.03" stroke="#132e65" stroke-width="1.5"></path><path d="M1284.81 -69.87L1284.81 -69.87" stroke="#132e65" stroke-width="1.5"></path><path d="M1284.81 -69.87L1412.01 -89.63" stroke="#132e65" stroke-width="1.5"></path><path d="M1284.81 -69.87L1300.52 101.59" stroke="#132e65" stroke-width="1.5"></path><path d="M1284.81 -69.87L1099.41 -47.77" stroke="#132e65" stroke-width="1.5"></path><path d="M1284.81 -69.87L1462.22 45.84" stroke="#132e65" stroke-width="1.5"></path><path d="M1284.81 -69.87L1103.63 66.9" stroke="#132e65" stroke-width="1.5"></path><path d="M1284.81 -69.87L1261.84 219.55" stroke="#132e65" stroke-width="1.5"></path><path d="M1300.52 101.59L1300.52 101.59" stroke="#132e65" stroke-width="1.5"></path><path d="M1300.52 101.59L1261.84 219.55" stroke="#132e65" stroke-width="1.5"></path><path d="M1300.52 101.59L1462.22 45.84" stroke="#132e65" stroke-width="1.5"></path><path d="M1261.84 219.55L1261.84 219.55" stroke="#132e65" stroke-width="1.5"></path><path d="M1261.84 219.55L1287.92 357.48" stroke="#132e65" stroke-width="1.5"></path><path d="M1287.92 357.48L1287.92 357.48" stroke="#132e65" stroke-width="1.5"></path><path d="M1248.21 536.44L1248.21 536.44" stroke="#132e65" stroke-width="1.5"></path><path d="M1248.21 536.44L1248.14 684.17" stroke="#132e65" stroke-width="1.5"></path><path d="M1248.14 684.17L1248.14 684.17" stroke="#132e65" stroke-width="1.5"></path><path d="M1248.14 684.17L1256.03 848.03" stroke="#132e65" stroke-width="1.5"></path><path d="M1248.14 684.17L1440.58 665.75" stroke="#132e65" stroke-width="1.5"></path><path d="M1248.14 684.17L1115.16 535.72" stroke="#132e65" stroke-width="1.5"></path><path d="M1248.14 684.17L1091.84 818.34" stroke="#132e65" stroke-width="1.5"></path><path d="M1256.03 848.03L1256.03 848.03" stroke="#132e65" stroke-width="1.5"></path><path d="M1256.03 848.03L1461.51 853.45" stroke="#132e65" stroke-width="1.5"></path><path d="M1256.03 848.03L1100.07 680.88" stroke="#132e65" stroke-width="1.5"></path><path d="M1256.03 848.03L1012.29 815.19" stroke="#132e65" stroke-width="1.5"></path><path d="M1256.03 848.03L1440.58 665.75" stroke="#132e65" stroke-width="1.5"></path><path d="M1412.01 -89.63L1412.01 -89.63" stroke="#132e65" stroke-width="1.5"></path><path d="M1412.01 -89.63L1462.22 45.84" stroke="#132e65" stroke-width="1.5"></path><path d="M1412.01 -89.63L1300.52 101.59" stroke="#132e65" stroke-width="1.5"></path><path d="M1462.22 45.84L1462.22 45.84" stroke="#132e65" stroke-width="1.5"></path><path d="M1457.01 345.3L1457.01 345.3" stroke="#132e65" stroke-width="1.5"></path><path d="M1457.01 345.3L1287.92 357.48" stroke="#132e65" stroke-width="1.5"></path><path d="M1457.01 345.3L1403.01 515.94" stroke="#132e65" stroke-width="1.5"></path><path d="M1457.01 345.3L1261.84 219.55" stroke="#132e65" stroke-width="1.5"></path><path d="M1403.01 515.94L1403.01 515.94" stroke="#132e65" stroke-width="1.5"></path><path d="M1403.01 515.94L1440.58 665.75" stroke="#132e65" stroke-width="1.5"></path><path d="M1403.01 515.94L1248.21 536.44" stroke="#132e65" stroke-width="1.5"></path><path d="M1403.01 515.94L1287.92 357.48" stroke="#132e65" stroke-width="1.5"></path><path d="M1403.01 515.94L1248.14 684.17" stroke="#132e65" stroke-width="1.5"></path><path d="M1403.01 515.94L1115.16 535.72" stroke="#132e65" stroke-width="1.5"></path><path d="M1440.58 665.75L1440.58 665.75" stroke="#132e65" stroke-width="1.5"></path><path d="M1440.58 665.75L1461.51 853.45" stroke="#132e65" stroke-width="1.5"></path><path d="M1440.58 665.75L1248.21 536.44" stroke="#132e65" stroke-width="1.5"></path><path d="M1440.58 665.75L1457.01 345.3" stroke="#132e65" stroke-width="1.5"></path><path d="M1461.51 853.45L1461.51 853.45" stroke="#132e65" stroke-width="1.5"></path><path d="M1461.51 853.45L1248.14 684.17" stroke="#132e65" stroke-width="1.5"></path><path d="M1461.51 853.45L1403.01 515.94" stroke="#132e65" stroke-width="1.5"></path><path d="M1461.51 853.45L1091.84 818.34" stroke="#132e65" stroke-width="1.5"></path><path d="M1461.51 853.45L1248.21 536.44" stroke="#132e65" stroke-width="1.5"></path><circle r="5" cx="-98.8" cy="522.22" fill="#132e65"></circle><circle r="5" cx="-80.49" cy="651.48" fill="#132e65"></circle><circle r="5" cx="-49.62" cy="808.13" fill="#132e65"></circle><circle r="5" cx="85.04" cy="506.51" fill="#132e65"></circle><circle r="5" cx="102.11" cy="643.57" fill="#132e65"></circle><circle r="5" cx="65.68" cy="814.39" fill="#132e65"></circle><circle r="5" cx="197.2" cy="510.45" fill="#132e65"></circle><circle r="5" cx="190.93" cy="698.74" fill="#132e65"></circle><circle r="5" cx="222.07" cy="822.45" fill="#132e65"></circle><circle r="5" cx="411.17" cy="493.15" fill="#132e65"></circle><circle r="5" cx="407.53" cy="649.63" fill="#132e65"></circle><circle r="5" cx="395.57" cy="833.96" fill="#132e65"></circle><circle r="5" cx="525.26" cy="379.42" fill="#132e65"></circle><circle r="5" cx="554.48" cy="543.39" fill="#132e65"></circle><circle r="5" cx="518.87" cy="662.25" fill="#132e65"></circle><circle r="5" cx="499.14" cy="801.92" fill="#132e65"></circle><circle r="5" cx="650.49" cy="338.34" fill="#132e65"></circle><circle r="5" cx="670.49" cy="670.16" fill="#132e65"></circle><circle r="5" cx="680.29" cy="829.64" fill="#132e65"></circle><circle r="5" cx="856.34" cy="-85.04" fill="#132e65"></circle><circle r="5" cx="801.7" cy="76.23" fill="#132e65"></circle><circle r="5" cx="841.8" cy="226.13" fill="#132e65"></circle><circle r="5" cx="813.28" cy="362.62" fill="#132e65"></circle><circle r="5" cx="812.84" cy="511.48" fill="#132e65"></circle><circle r="5" cx="811.84" cy="840.35" fill="#132e65"></circle><circle r="5" cx="951.26" cy="-75.97" fill="#132e65"></circle><circle r="5" cx="968.99" cy="95.54" fill="#132e65"></circle><circle r="5" cx="974.39" cy="221.75" fill="#132e65"></circle><circle r="5" cx="942.98" cy="394.22" fill="#132e65"></circle><circle r="5" cx="1012.01" cy="527.67" fill="#132e65"></circle><circle r="5" cx="973.5" cy="683.48" fill="#132e65"></circle><circle r="5" cx="1012.29" cy="815.19" fill="#132e65"></circle><circle r="5" cx="1099.41" cy="-47.77" fill="#132e65"></circle><circle r="5" cx="1103.63" cy="66.9" fill="#132e65"></circle><circle r="5" cx="1087.51" cy="236.23" fill="#132e65"></circle><circle r="5" cx="1116.31" cy="338.74" fill="#132e65"></circle><circle r="5" cx="1115.16" cy="535.72" fill="#132e65"></circle><circle r="5" cx="1100.07" cy="680.88" fill="#132e65"></circle><circle r="5" cx="1091.84" cy="818.34" fill="#132e65"></circle><circle r="5" cx="1284.81" cy="-69.87" fill="#132e65"></circle><circle r="5" cx="1300.52" cy="101.59" fill="#132e65"></circle><circle r="5" cx="1261.84" cy="219.55" fill="#132e65"></circle><circle r="5" cx="1287.92" cy="357.48" fill="#132e65"></circle><circle r="5" cx="1248.21" cy="536.44" fill="#132e65"></circle><circle r="5" cx="1248.14" cy="684.17" fill="#132e65"></circle><circle r="5" cx="1256.03" cy="848.03" fill="#132e65"></circle><circle r="5" cx="1412.01" cy="-89.63" fill="#132e65"></circle><circle r="5" cx="1462.22" cy="45.84" fill="#132e65"></circle><circle r="5" cx="1457.01" cy="345.3" fill="#132e65"></circle><circle r="5" cx="1403.01" cy="515.94" fill="#132e65"></circle><circle r="5" cx="1440.58" cy="665.75" fill="#132e65"></circle><circle r="5" cx="1461.51" cy="853.45" fill="#132e65"></circle><path d="M400.36 674.85L400.36 674.85" stroke="hsl(228.5, 77.2%, 51.5%)" stroke-width="1.5"></path><path d="M400.36 674.85L340.45 551.27" stroke="hsl(228.5, 77.2%, 51.5%)" stroke-width="1.5"></path><path d="M400.36 674.85L237.15 658.18" stroke="hsl(228.5, 77.2%, 51.5%)" stroke-width="1.5"></path><path d="M400.36 674.85L557.7 544.94" stroke="hsl(228.5, 77.2%, 51.5%)" stroke-width="1.5"></path><path d="M655.39 649.72L655.39 649.72" stroke="hsl(228.5, 77.2%, 51.5%)" stroke-width="1.5"></path><path d="M655.39 649.72L557.7 544.94" stroke="hsl(228.5, 77.2%, 51.5%)" stroke-width="1.5"></path><path d="M655.39 649.72L710.58 512.52" stroke="hsl(228.5, 77.2%, 51.5%)" stroke-width="1.5"></path><path d="M655.39 649.72L707.76 813.41" stroke="hsl(228.5, 77.2%, 51.5%)" stroke-width="1.5"></path><path d="M655.39 649.72L828.71 654.36" stroke="hsl(228.5, 77.2%, 51.5%)" stroke-width="1.5"></path><path d="M861.49 362.96L861.49 362.96" stroke="hsl(228.5, 77.2%, 51.5%)" stroke-width="1.5"></path><path d="M861.49 362.96L946.31 391.26" stroke="hsl(228.5, 77.2%, 51.5%)" stroke-width="1.5"></path><path d="M861.49 362.96L961.66 204.02" stroke="hsl(228.5, 77.2%, 51.5%)" stroke-width="1.5"></path><path d="M861.49 362.96L710.58 512.52" stroke="hsl(228.5, 77.2%, 51.5%)" stroke-width="1.5"></path><path d="M861.49 362.96L951.47 562.15" stroke="hsl(228.5, 77.2%, 51.5%)" stroke-width="1.5"></path><path d="M946.31 391.26L946.31 391.26" stroke="hsl(228.5, 77.2%, 51.5%)" stroke-width="1.5"></path><path d="M946.31 391.26L951.47 562.15" stroke="hsl(228.5, 77.2%, 51.5%)" stroke-width="1.5"></path><path d="M1150.81 -105.42L1150.81 -105.42" stroke="hsl(228.5, 77.2%, 51.5%)" stroke-width="1.5"></path><path d="M1150.81 -105.42L1274.26 -95.63" stroke="hsl(228.5, 77.2%, 51.5%)" stroke-width="1.5"></path><path d="M1150.81 -105.42L1092.19 52.26" stroke="hsl(228.5, 77.2%, 51.5%)" stroke-width="1.5"></path><path d="M1150.81 -105.42L1437.88 -105.6" stroke="hsl(228.5, 77.2%, 51.5%)" stroke-width="1.5"></path><path d="M1274.26 -95.63L1274.26 -95.63" stroke="hsl(228.5, 77.2%, 51.5%)" stroke-width="1.5"></path><path d="M1274.26 -95.63L1437.88 -105.6" stroke="hsl(228.5, 77.2%, 51.5%)" stroke-width="1.5"></path><path d="M1274.26 -95.63L1092.19 52.26" stroke="hsl(228.5, 77.2%, 51.5%)" stroke-width="1.5"></path><path d="M1274.26 -95.63L1450.12 64.44" stroke="hsl(228.5, 77.2%, 51.5%)" stroke-width="1.5"></path><path d="M1448.78 511.64L1448.78 511.64" stroke="hsl(228.5, 77.2%, 51.5%)" stroke-width="1.5"></path><path d="M1448.78 511.64L1435.97 369.36" stroke="hsl(228.5, 77.2%, 51.5%)" stroke-width="1.5"></path><path d="M1448.78 511.64L1409.59 685.32" stroke="hsl(228.5, 77.2%, 51.5%)" stroke-width="1.5"></path><path d="M1448.78 511.64L1246.3 529.93" stroke="hsl(228.5, 77.2%, 51.5%)" stroke-width="1.5"></path><path d="M1448.78 511.64L1288.48 640.17" stroke="hsl(228.5, 77.2%, 51.5%)" stroke-width="1.5"></path><path d="M1448.78 511.64L1296.56 353.5" stroke="hsl(228.5, 77.2%, 51.5%)" stroke-width="1.5"></path><path d="M1448.78 511.64L1405.57 249.36" stroke="hsl(228.5, 77.2%, 51.5%)" stroke-width="1.5"></path><path d="M-97.73 676.92L-97.73 676.92" stroke="hsl(228.5, 77.2%, 51.5%)" stroke-width="1.5"></path><path d="M-97.73 676.92L44.6 684.7" stroke="hsl(228.5, 77.2%, 51.5%)" stroke-width="1.5"></path><path d="M-97.73 676.92L-76.96 829.93" stroke="hsl(228.5, 77.2%, 51.5%)" stroke-width="1.5"></path><path d="M-97.73 676.92L39.87 849.31" stroke="hsl(228.5, 77.2%, 51.5%)" stroke-width="1.5"></path><path d="M-97.73 676.92L237.15 658.18" stroke="hsl(228.5, 77.2%, 51.5%)" stroke-width="1.5"></path><path d="M-76.96 829.93L-76.96 829.93" stroke="hsl(228.5, 77.2%, 51.5%)" stroke-width="1.5"></path><path d="M-76.96 829.93L39.87 849.31" stroke="hsl(228.5, 77.2%, 51.5%)" stroke-width="1.5"></path><path d="M-76.96 829.93L44.6 684.7" stroke="hsl(228.5, 77.2%, 51.5%)" stroke-width="1.5"></path><path d="M44.6 684.7L44.6 684.7" stroke="hsl(228.5, 77.2%, 51.5%)" stroke-width="1.5"></path><path d="M44.6 684.7L39.87 849.31" stroke="hsl(228.5, 77.2%, 51.5%)" stroke-width="1.5"></path><path d="M44.6 684.7L237.15 658.18" stroke="hsl(228.5, 77.2%, 51.5%)" stroke-width="1.5"></path><path d="M39.87 849.31L39.87 849.31" stroke="hsl(228.5, 77.2%, 51.5%)" stroke-width="1.5"></path><path d="M39.87 849.31L205.46 826.69" stroke="hsl(228.5, 77.2%, 51.5%)" stroke-width="1.5"></path><path d="M39.87 849.31L237.15 658.18" stroke="hsl(228.5, 77.2%, 51.5%)" stroke-width="1.5"></path><path d="M237.15 658.18L237.15 658.18" stroke="hsl(228.5, 77.2%, 51.5%)" stroke-width="1.5"></path><path d="M237.15 658.18L340.45 551.27" stroke="hsl(228.5, 77.2%, 51.5%)" stroke-width="1.5"></path><path d="M237.15 658.18L205.46 826.69" stroke="hsl(228.5, 77.2%, 51.5%)" stroke-width="1.5"></path><path d="M205.46 826.69L205.46 826.69" stroke="hsl(228.5, 77.2%, 51.5%)" stroke-width="1.5"></path><path d="M205.46 826.69L44.6 684.7" stroke="hsl(228.5, 77.2%, 51.5%)" stroke-width="1.5"></path><path d="M340.45 551.27L340.45 551.27" stroke="hsl(228.5, 77.2%, 51.5%)" stroke-width="1.5"></path><path d="M340.45 551.27L557.7 544.94" stroke="hsl(228.5, 77.2%, 51.5%)" stroke-width="1.5"></path><path d="M340.45 551.27L205.46 826.69" stroke="hsl(228.5, 77.2%, 51.5%)" stroke-width="1.5"></path><path d="M557.7 544.94L557.7 544.94" stroke="hsl(228.5, 77.2%, 51.5%)" stroke-width="1.5"></path><path d="M557.7 544.94L710.58 512.52" stroke="hsl(228.5, 77.2%, 51.5%)" stroke-width="1.5"></path><path d="M710.58 512.52L710.58 512.52" stroke="hsl(228.5, 77.2%, 51.5%)" stroke-width="1.5"></path><path d="M710.58 512.52L828.71 654.36" stroke="hsl(228.5, 77.2%, 51.5%)" stroke-width="1.5"></path><path d="M710.58 512.52L951.47 562.15" stroke="hsl(228.5, 77.2%, 51.5%)" stroke-width="1.5"></path><path d="M710.58 512.52L946.31 391.26" stroke="hsl(228.5, 77.2%, 51.5%)" stroke-width="1.5"></path><path d="M707.76 813.41L707.76 813.41" stroke="hsl(228.5, 77.2%, 51.5%)" stroke-width="1.5"></path><path d="M707.76 813.41L801.8 808.87" stroke="hsl(228.5, 77.2%, 51.5%)" stroke-width="1.5"></path><path d="M707.76 813.41L828.71 654.36" stroke="hsl(228.5, 77.2%, 51.5%)" stroke-width="1.5"></path><path d="M707.76 813.41L945.8 849.43" stroke="hsl(228.5, 77.2%, 51.5%)" stroke-width="1.5"></path><path d="M707.76 813.41L964.3 686.25" stroke="hsl(228.5, 77.2%, 51.5%)" stroke-width="1.5"></path><path d="M828.71 654.36L828.71 654.36" stroke="hsl(228.5, 77.2%, 51.5%)" stroke-width="1.5"></path><path d="M828.71 654.36L964.3 686.25" stroke="hsl(228.5, 77.2%, 51.5%)" stroke-width="1.5"></path><path d="M828.71 654.36L951.47 562.15" stroke="hsl(228.5, 77.2%, 51.5%)" stroke-width="1.5"></path><path d="M828.71 654.36L801.8 808.87" stroke="hsl(228.5, 77.2%, 51.5%)" stroke-width="1.5"></path><path d="M801.8 808.87L801.8 808.87" stroke="hsl(228.5, 77.2%, 51.5%)" stroke-width="1.5"></path><path d="M961.66 204.02L961.66 204.02" stroke="hsl(228.5, 77.2%, 51.5%)" stroke-width="1.5"></path><path d="M961.66 204.02L946.31 391.26" stroke="hsl(228.5, 77.2%, 51.5%)" stroke-width="1.5"></path><path d="M951.47 562.15L951.47 562.15" stroke="hsl(228.5, 77.2%, 51.5%)" stroke-width="1.5"></path><path d="M951.47 562.15L964.3 686.25" stroke="hsl(228.5, 77.2%, 51.5%)" stroke-width="1.5"></path><path d="M964.3 686.25L964.3 686.25" stroke="hsl(228.5, 77.2%, 51.5%)" stroke-width="1.5"></path><path d="M964.3 686.25L1096.29 684.81" stroke="hsl(228.5, 77.2%, 51.5%)" stroke-width="1.5"></path><path d="M964.3 686.25L945.8 849.43" stroke="hsl(228.5, 77.2%, 51.5%)" stroke-width="1.5"></path><path d="M964.3 686.25L1134.81 791.87" stroke="hsl(228.5, 77.2%, 51.5%)" stroke-width="1.5"></path><path d="M964.3 686.25L801.8 808.87" stroke="hsl(228.5, 77.2%, 51.5%)" stroke-width="1.5"></path><path d="M945.8 849.43L945.8 849.43" stroke="hsl(228.5, 77.2%, 51.5%)" stroke-width="1.5"></path><path d="M945.8 849.43L801.8 808.87" stroke="hsl(228.5, 77.2%, 51.5%)" stroke-width="1.5"></path><path d="M945.8 849.43L1134.81 791.87" stroke="hsl(228.5, 77.2%, 51.5%)" stroke-width="1.5"></path><path d="M945.8 849.43L1096.29 684.81" stroke="hsl(228.5, 77.2%, 51.5%)" stroke-width="1.5"></path><path d="M945.8 849.43L828.71 654.36" stroke="hsl(228.5, 77.2%, 51.5%)" stroke-width="1.5"></path><path d="M1092.19 52.26L1092.19 52.26" stroke="hsl(228.5, 77.2%, 51.5%)" stroke-width="1.5"></path><path d="M1092.19 52.26L1151.07 220.07" stroke="hsl(228.5, 77.2%, 51.5%)" stroke-width="1.5"></path><path d="M1151.07 220.07L1151.07 220.07" stroke="hsl(228.5, 77.2%, 51.5%)" stroke-width="1.5"></path><path d="M1151.07 220.07L1252.63 200.58" stroke="hsl(228.5, 77.2%, 51.5%)" stroke-width="1.5"></path><path d="M1151.07 220.07L1134.27 408.26" stroke="hsl(228.5, 77.2%, 51.5%)" stroke-width="1.5"></path><path d="M1151.07 220.07L961.66 204.02" stroke="hsl(228.5, 77.2%, 51.5%)" stroke-width="1.5"></path><path d="M1134.27 408.26L1134.27 408.26" stroke="hsl(228.5, 77.2%, 51.5%)" stroke-width="1.5"></path><path d="M1134.27 408.26L1131.43 508.5" stroke="hsl(228.5, 77.2%, 51.5%)" stroke-width="1.5"></path><path d="M1134.27 408.26L1246.3 529.93" stroke="hsl(228.5, 77.2%, 51.5%)" stroke-width="1.5"></path><path d="M1134.27 408.26L1296.56 353.5" stroke="hsl(228.5, 77.2%, 51.5%)" stroke-width="1.5"></path><path d="M1131.43 508.5L1131.43 508.5" stroke="hsl(228.5, 77.2%, 51.5%)" stroke-width="1.5"></path><path d="M1131.43 508.5L1246.3 529.93" stroke="hsl(228.5, 77.2%, 51.5%)" stroke-width="1.5"></path><path d="M1096.29 684.81L1096.29 684.81" stroke="hsl(228.5, 77.2%, 51.5%)" stroke-width="1.5"></path><path d="M1096.29 684.81L1134.81 791.87" stroke="hsl(228.5, 77.2%, 51.5%)" stroke-width="1.5"></path><path d="M1134.81 791.87L1134.81 791.87" stroke="hsl(228.5, 77.2%, 51.5%)" stroke-width="1.5"></path><path d="M1134.81 791.87L1246.22 790.09" stroke="hsl(228.5, 77.2%, 51.5%)" stroke-width="1.5"></path><path d="M1252.63 200.58L1252.63 200.58" stroke="hsl(228.5, 77.2%, 51.5%)" stroke-width="1.5"></path><path d="M1252.63 200.58L1296.56 353.5" stroke="hsl(228.5, 77.2%, 51.5%)" stroke-width="1.5"></path><path d="M1252.63 200.58L1405.57 249.36" stroke="hsl(228.5, 77.2%, 51.5%)" stroke-width="1.5"></path><path d="M1252.63 200.58L1092.19 52.26" stroke="hsl(228.5, 77.2%, 51.5%)" stroke-width="1.5"></path><path d="M1296.56 353.5L1296.56 353.5" stroke="hsl(228.5, 77.2%, 51.5%)" stroke-width="1.5"></path><path d="M1296.56 353.5L1435.97 369.36" stroke="hsl(228.5, 77.2%, 51.5%)" stroke-width="1.5"></path><path d="M1296.56 353.5L1405.57 249.36" stroke="hsl(228.5, 77.2%, 51.5%)" stroke-width="1.5"></path><path d="M1296.56 353.5L1246.3 529.93" stroke="hsl(228.5, 77.2%, 51.5%)" stroke-width="1.5"></path><path d="M1246.3 529.93L1246.3 529.93" stroke="hsl(228.5, 77.2%, 51.5%)" stroke-width="1.5"></path><path d="M1246.3 529.93L1288.48 640.17" stroke="hsl(228.5, 77.2%, 51.5%)" stroke-width="1.5"></path><path d="M1288.48 640.17L1288.48 640.17" stroke="hsl(228.5, 77.2%, 51.5%)" stroke-width="1.5"></path><path d="M1288.48 640.17L1409.59 685.32" stroke="hsl(228.5, 77.2%, 51.5%)" stroke-width="1.5"></path><path d="M1288.48 640.17L1246.22 790.09" stroke="hsl(228.5, 77.2%, 51.5%)" stroke-width="1.5"></path><path d="M1288.48 640.17L1096.29 684.81" stroke="hsl(228.5, 77.2%, 51.5%)" stroke-width="1.5"></path><path d="M1288.48 640.17L1131.43 508.5" stroke="hsl(228.5, 77.2%, 51.5%)" stroke-width="1.5"></path><path d="M1246.22 790.09L1246.22 790.09" stroke="hsl(228.5, 77.2%, 51.5%)" stroke-width="1.5"></path><path d="M1246.22 790.09L1096.29 684.81" stroke="hsl(228.5, 77.2%, 51.5%)" stroke-width="1.5"></path><path d="M1437.88 -105.6L1437.88 -105.6" stroke="hsl(228.5, 77.2%, 51.5%)" stroke-width="1.5"></path><path d="M1437.88 -105.6L1450.12 64.44" stroke="hsl(228.5, 77.2%, 51.5%)" stroke-width="1.5"></path><path d="M1437.88 -105.6L1405.57 249.36" stroke="hsl(228.5, 77.2%, 51.5%)" stroke-width="1.5"></path><path d="M1437.88 -105.6L1252.63 200.58" stroke="hsl(228.5, 77.2%, 51.5%)" stroke-width="1.5"></path><path d="M1450.12 64.44L1450.12 64.44" stroke="hsl(228.5, 77.2%, 51.5%)" stroke-width="1.5"></path><path d="M1450.12 64.44L1405.57 249.36" stroke="hsl(228.5, 77.2%, 51.5%)" stroke-width="1.5"></path><path d="M1450.12 64.44L1252.63 200.58" stroke="hsl(228.5, 77.2%, 51.5%)" stroke-width="1.5"></path><path d="M1405.57 249.36L1405.57 249.36" stroke="hsl(228.5, 77.2%, 51.5%)" stroke-width="1.5"></path><path d="M1405.57 249.36L1435.97 369.36" stroke="hsl(228.5, 77.2%, 51.5%)" stroke-width="1.5"></path><path d="M1405.57 249.36L1151.07 220.07" stroke="hsl(228.5, 77.2%, 51.5%)" stroke-width="1.5"></path><path d="M1435.97 369.36L1435.97 369.36" stroke="hsl(228.5, 77.2%, 51.5%)" stroke-width="1.5"></path><path d="M1409.59 685.32L1409.59 685.32" stroke="hsl(228.5, 77.2%, 51.5%)" stroke-width="1.5"></path><path d="M1409.59 685.32L1451.07 820.82" stroke="hsl(228.5, 77.2%, 51.5%)" stroke-width="1.5"></path><path d="M1451.07 820.82L1451.07 820.82" stroke="hsl(228.5, 77.2%, 51.5%)" stroke-width="1.5"></path><path d="M1451.07 820.82L1246.22 790.09" stroke="hsl(228.5, 77.2%, 51.5%)" stroke-width="1.5"></path><circle r="25" cx="400.36" cy="674.85" fill="url(&quot;#SvgjsRadialGradient2413&quot;)"></circle><circle r="25" cx="655.39" cy="649.72" fill="url(&quot;#SvgjsRadialGradient2413&quot;)"></circle><circle r="25" cx="861.49" cy="362.96" fill="url(&quot;#SvgjsRadialGradient2413&quot;)"></circle><circle r="25" cx="946.31" cy="391.26" fill="url(&quot;#SvgjsRadialGradient2413&quot;)"></circle><circle r="25" cx="1150.81" cy="-105.42" fill="url(&quot;#SvgjsRadialGradient2413&quot;)"></circle><circle r="25" cx="1274.26" cy="-95.63" fill="url(&quot;#SvgjsRadialGradient2413&quot;)"></circle><circle r="25" cx="1448.78" cy="511.64" fill="url(&quot;#SvgjsRadialGradient2413&quot;)"></circle><circle r="5" cx="-97.73" cy="676.92" fill="#8b9ad9"></circle><circle r="5" cx="-76.96" cy="829.93" fill="#8b9ad9"></circle><circle r="5" cx="44.6" cy="684.7" fill="#8b9ad9"></circle><circle r="5" cx="39.87" cy="849.31" fill="#8b9ad9"></circle><circle r="5" cx="237.15" cy="658.18" fill="#8b9ad9"></circle><circle r="5" cx="205.46" cy="826.69" fill="#8b9ad9"></circle><circle r="5" cx="340.45" cy="551.27" fill="#8b9ad9"></circle><circle r="5" cx="557.7" cy="544.94" fill="#8b9ad9"></circle><circle r="5" cx="710.58" cy="512.52" fill="#8b9ad9"></circle><circle r="5" cx="707.76" cy="813.41" fill="#8b9ad9"></circle><circle r="5" cx="828.71" cy="654.36" fill="#8b9ad9"></circle><circle r="5" cx="801.8" cy="808.87" fill="#8b9ad9"></circle><circle r="5" cx="961.66" cy="204.02" fill="#8b9ad9"></circle><circle r="5" cx="951.47" cy="562.15" fill="#8b9ad9"></circle><circle r="5" cx="964.3" cy="686.25" fill="#8b9ad9"></circle><circle r="5" cx="945.8" cy="849.43" fill="#8b9ad9"></circle><circle r="5" cx="1092.19" cy="52.26" fill="#8b9ad9"></circle><circle r="5" cx="1151.07" cy="220.07" fill="#8b9ad9"></circle><circle r="5" cx="1134.27" cy="408.26" fill="#8b9ad9"></circle><circle r="5" cx="1131.43" cy="508.5" fill="#8b9ad9"></circle><circle r="5" cx="1096.29" cy="684.81" fill="#8b9ad9"></circle><circle r="5" cx="1134.81" cy="791.87" fill="#8b9ad9"></circle><circle r="5" cx="1252.63" cy="200.58" fill="#8b9ad9"></circle><circle r="5" cx="1296.56" cy="353.5" fill="#8b9ad9"></circle><circle r="5" cx="1246.3" cy="529.93" fill="#8b9ad9"></circle><circle r="5" cx="1288.48" cy="640.17" fill="#8b9ad9"></circle><circle r="5" cx="1246.22" cy="790.09" fill="#8b9ad9"></circle><circle r="5" cx="1437.88" cy="-105.6" fill="#8b9ad9"></circle><circle r="5" cx="1450.12" cy="64.44" fill="#8b9ad9"></circle><circle r="5" cx="1405.57" cy="249.36" fill="#8b9ad9"></circle><circle r="5" cx="1435.97" cy="369.36" fill="#8b9ad9"></circle><circle r="5" cx="1409.59" cy="685.32" fill="#8b9ad9"></circle><circle r="5" cx="1451.07" cy="820.82" fill="#8b9ad9"></circle></g><defs><mask id="SvgjsMask2411"><rect width="1280" height="720" fill="#ffffff"></rect></mask><linearGradient x1="10.94%" y1="119.44%" x2="89.06%" y2="-19.44%" gradientUnits="userSpaceOnUse" id="SvgjsLinearGradient2412"><stop stop-color="rgba(23, 17, 101, 1)" offset="0.68"></stop><stop stop-color="rgba(146, 0, 255, 1)" offset="1"></stop></linearGradient><radialGradient id="SvgjsRadialGradient2413"><stop stop-color="#ffffff" offset="0.1"></stop><stop stop-color="#1735b3" offset="0.2"></stop><stop stop-color="rgba(23, 53, 179, 0)" offset="1"></stop></radialGradient></defs></svg>